<svg 
 xmlns="http://www.w3.org/2000/svg"
 xmlns:xlink="http://www.w3.org/1999/xlink"
 width="0.278in" height="0.333in">
<path fill-rule="evenodd"  stroke="rgb(0, 52, 120)" stroke-width="2px" stroke-linecap="butt" stroke-linejoin="miter" fill="rgb(0, 52, 120)"
 d="M15.210,21.999 L3.790,21.999 C2.251,21.999 1.000,20.762 1.000,19.243 L1.000,3.757 C1.000,2.236 2.251,0.999 3.790,0.999 L12.749,0.999 L18.000,6.801 L18.000,19.243 C18.000,20.763 16.748,21.999 15.210,21.999 ZM13.116,3.376 L13.116,6.394 L15.849,6.394 L13.116,3.376 ZM16.671,7.708 L11.787,7.708 L11.787,2.313 L3.790,2.313 C2.984,2.313 2.329,2.961 2.329,3.757 L2.329,19.243 C2.329,20.039 2.984,20.686 3.790,20.686 L15.210,20.686 C16.016,20.686 16.671,20.039 16.671,19.243 L16.671,7.708 ZM7.414,15.805 L13.542,15.805 L13.542,17.118 L7.414,17.118 L7.414,15.805 ZM7.414,12.776 L13.542,12.776 L13.542,14.090 L7.414,14.090 L7.414,12.776 ZM7.414,9.748 L13.542,9.748 L13.542,11.062 L7.414,11.062 L7.414,9.748 ZM4.857,15.805 L6.131,15.805 L6.131,17.118 L4.857,17.118 L4.857,15.805 ZM4.857,12.776 L6.131,12.776 L6.131,14.090 L4.857,14.090 L4.857,12.776 ZM4.857,9.748 L6.131,9.748 L6.131,11.062 L4.857,11.062 L4.857,9.748 Z"/>
</svg>