<svg 
 xmlns="http://www.w3.org/2000/svg"
 xmlns:xlink="http://www.w3.org/1999/xlink"
 width="0.319in" height="0.306in">
<path fill-rule="evenodd"  fill="rgb(255, 255, 255)"
 d="M20.310,5.239 C18.828,5.239 17.621,4.063 17.621,2.619 C17.621,1.175 18.827,-0.000 20.310,-0.000 C21.794,-0.000 23.000,1.175 23.000,2.619 C23.000,4.063 21.793,5.239 20.310,5.239 ZM20.241,8.393 C21.724,8.393 22.930,9.568 22.930,11.013 C22.930,12.457 21.724,13.632 20.241,13.632 C18.757,13.632 17.550,12.457 17.550,11.013 C17.550,9.568 18.758,8.393 20.241,8.393 ZM11.465,5.238 C9.982,5.238 8.775,4.063 8.775,2.619 C8.775,1.175 9.982,-0.000 11.465,-0.000 C12.948,-0.000 14.155,1.175 14.155,2.619 C14.155,4.063 12.948,5.238 11.465,5.238 ZM11.395,8.393 C12.878,8.393 14.084,9.568 14.084,11.013 C14.084,12.457 12.877,13.632 11.395,13.632 C9.912,13.632 8.705,12.457 8.705,11.013 C8.705,9.568 9.911,8.393 11.395,8.393 ZM2.760,5.238 C1.277,5.238 0.071,4.063 0.071,2.619 C0.071,1.175 1.277,-0.000 2.760,-0.000 C4.243,-0.000 5.450,1.175 5.450,2.619 C5.450,4.063 4.244,5.238 2.760,5.238 ZM2.690,8.393 C4.173,8.393 5.380,9.568 5.380,11.013 C5.380,12.457 4.173,13.632 2.690,13.632 C1.207,13.632 -0.000,12.457 -0.000,11.013 C-0.000,9.568 1.207,8.393 2.690,8.393 ZM2.752,16.761 C4.235,16.761 5.441,17.935 5.441,19.380 C5.441,20.825 4.235,22.000 2.752,22.000 C1.268,22.000 0.061,20.825 0.061,19.380 C0.061,17.935 1.268,16.761 2.752,16.761 ZM11.457,16.761 C12.939,16.761 14.146,17.935 14.146,19.380 C14.146,20.825 12.939,22.000 11.457,22.000 C9.973,22.000 8.767,20.825 8.767,19.380 C8.767,17.935 9.974,16.761 11.457,16.761 ZM20.302,16.761 C21.785,16.761 22.992,17.935 22.992,19.380 C22.992,20.825 21.785,22.000 20.302,22.000 C18.819,22.000 17.612,20.825 17.612,19.380 C17.612,17.935 18.819,16.761 20.302,16.761 Z"/>
</svg>