<svg 
 xmlns="http://www.w3.org/2000/svg"
 xmlns:xlink="http://www.w3.org/1999/xlink"
 width="0.417in" height="0.5in">
<path fill-rule="evenodd"  fill="rgb(255, 255, 255)"
 d="M29.670,22.112 C29.541,22.768 28.976,23.222 28.343,23.222 C28.255,23.222 28.166,23.213 28.076,23.195 C27.343,23.045 26.868,22.315 27.015,21.568 C27.200,20.623 27.294,19.651 27.294,18.677 C27.294,11.138 21.762,4.882 14.425,4.124 C13.681,4.046 13.139,3.368 13.214,2.609 C13.290,1.849 13.958,1.294 14.698,1.373 C23.423,2.276 30.003,9.715 30.003,18.677 C30.003,19.832 29.891,20.988 29.670,22.112 ZM24.028,18.677 C24.028,19.539 23.931,20.400 23.743,21.233 C23.598,21.871 23.041,22.304 22.424,22.304 C22.323,22.304 22.220,22.292 22.117,22.268 C21.389,22.095 20.935,21.353 21.104,20.610 C21.247,19.980 21.319,19.330 21.319,18.677 C21.319,14.282 18.094,10.633 13.817,10.191 C13.073,10.113 12.531,9.435 12.606,8.676 C12.682,7.916 13.345,7.362 14.091,7.440 C19.756,8.027 24.028,12.858 24.028,18.677 ZM8.707,8.198 C7.877,9.277 7.516,10.662 7.725,12.018 C8.007,13.838 8.641,15.581 9.590,17.150 L9.819,17.538 C11.009,19.557 12.377,21.461 13.906,23.227 C15.085,24.621 16.524,25.762 18.139,26.584 C19.344,27.197 20.746,27.261 22.006,26.778 L23.496,26.207 C24.223,25.928 25.044,26.198 25.475,26.859 L28.380,31.314 C28.913,32.132 28.661,33.239 27.828,33.733 L25.203,35.291 C24.063,35.967 22.713,36.160 21.428,35.855 C19.089,35.296 16.910,34.189 15.065,32.619 L13.319,31.134 C12.473,30.414 11.715,29.591 11.063,28.684 L6.288,22.580 C5.637,21.671 2.442,16.383 2.024,15.342 L1.162,13.196 C0.233,10.886 -0.144,8.382 0.063,5.893 C0.171,4.600 0.773,3.400 1.714,2.525 L3.959,0.439 C4.671,-0.223 5.782,-0.136 6.385,0.630 L9.675,4.797 C10.163,5.415 10.169,6.294 9.689,6.919 L8.707,8.198 Z"/>
</svg>